<svg width="1708" height="158" viewBox="0 0 1708 158" fill="none" xmlns="http://www.w3.org/2000/svg">
<mask id="mask0_2_7" style="mask-type:luminance" maskUnits="userSpaceOnUse" x="0" y="0" width="1708" height="158">
<path d="M1707.03 0H0V157.221H1707.03V0Z" fill="white"/>
</mask>
<g mask="url(#mask0_2_7)">
<path d="M1780.81 38.369C1752.31 78.1866 1694.04 94.0854 1650.67 73.8939C1638.95 68.4265 1629.52 60.8923 1622.53 51.9801C1596.54 68.1527 1563.93 72.9223 1536.72 61.9699C1535.7 61.5459 1534.69 61.1219 1533.68 60.6715C1515.99 71.518 1492.38 78.1425 1466.44 78.1425C1434.11 78.1425 1405.36 67.8436 1387.18 51.8653C1367.12 68.3382 1340.61 78.3456 1311.54 78.3456C1284.82 78.3456 1260.26 69.8751 1240.9 55.7164C1231.63 63.6657 1220.18 68.3382 1207.82 68.3382C1192.48 68.3382 1178.5 61.0954 1168.33 49.3303C1150.37 61.0954 1125.79 68.3382 1098.67 68.3382C1071.55 68.3382 1044.83 60.4507 1026.69 47.767C1009.89 55.5574 988.732 60.2122 965.728 60.2122C951.625 60.2122 938.231 58.481 926.09 55.3189C906.845 70.5199 879.43 80.0503 849.049 80.0503C815.972 80.0503 786.454 68.7798 767.066 51.1499C743.671 69.0448 712.06 80.0503 677.281 80.0503C644.819 80.0503 615.135 70.4845 592.308 54.6476C574.079 63.5421 552.138 68.7268 528.507 68.7268C507.713 68.7268 488.243 64.7256 471.444 57.6949C457.909 63.8954 441.997 67.4638 424.926 67.4638C407.856 67.4638 393.386 64.2045 380.288 58.534C361.338 71.8801 335.709 80.0503 307.515 80.0503C281.105 80.0503 256.954 72.8782 238.429 60.9983C222.553 65.7061 204.832 68.3117 186.119 68.3117C171.153 68.3117 156.801 66.6335 143.514 63.5509C125.037 86.3391 91.3689 101.558 52.8661 101.558C-5.46157 101.54 -52.7597 66.4922 -52.7597 23.2475C-52.7597 -19.9971 -5.46157 -55.0539 52.8897 -55.0539C62.8908 -55.0539 72.549 -54.0293 81.7107 -52.1126C103.722 -73.8675 142.273 -88.2823 186.142 -88.2823C216.335 -88.2823 243.974 -81.4635 265.453 -70.1048C278.351 -74.2649 292.572 -76.5614 307.538 -76.5614C335.744 -76.5614 361.362 -68.3736 380.312 -55.0451C393.422 -60.7245 408.672 -63.9749 424.95 -63.9749C428.627 -63.9749 432.22 -63.8071 435.767 -63.4803C456.596 -84.3077 490.382 -97.8393 528.542 -97.8393C545.069 -97.8393 560.78 -95.2866 574.954 -90.7202C598.845 -115.081 635.823 -130.714 677.317 -130.714C731.271 -130.714 777.599 -104.296 797.46 -66.6159C812.721 -72.9754 830.335 -76.5968 849.084 -76.5968C879.466 -76.5968 906.88 -67.084 926.125 -51.8565C938.254 -55.0009 951.66 -56.7586 965.763 -56.7586C988.756 -56.7586 1009.9 -52.1126 1026.7 -44.3046C1044.84 -56.9883 1070.4 -64.8935 1098.71 -64.8935C1127.02 -64.8935 1150.4 -57.6507 1168.36 -45.8856C1178.31 -57.3946 1191.87 -64.5667 1206.82 -64.8847C1223.79 -102.547 1264.32 -129.045 1311.58 -129.045C1365.59 -129.045 1410.77 -94.4387 1422.11 -48.1468C1435.46 -52.5984 1450.54 -55.0981 1466.48 -55.0981C1482.41 -55.0981 1498.9 -52.3511 1512.74 -47.502C1539.03 -81.8875 1587.61 -97.274 1625.66 -81.9847C1637.06 -77.3917 1646.32 -70.5287 1653.16 -62.1289C1683.23 -80.7746 1722.47 -85.0938 1753.9 -70.4581C1797.26 -50.2401 1809.33 -1.56339 1780.85 38.2807V38.3337L1780.81 38.369Z" fill="url(#paint0_linear_2_7)"/>
</g>
<defs>
<linearGradient id="paint0_linear_2_7" x1="871.533" y1="-15.5808" x2="873.177" y2="322.61" gradientUnits="userSpaceOnUse">
<stop stop-color="#F9FAFB"/>
<stop offset="1" stop-color="#C6C9FC"/>
</linearGradient>
</defs>
</svg>
