<svg width="407" height="407" viewBox="0 0 407 407" fill="none" xmlns="http://www.w3.org/2000/svg">
<mask id="path-1-inside-1_6_2" fill="white">
<path d="M285.389 198.645C286.762 211.034 287.925 223.618 288.906 235.992C289.208 239.553 289.389 243.324 288.619 246.885C287.547 250.85 285.192 254.216 282.943 257.583C258.005 293.149 231.799 330.002 194.724 351.504C197.26 326.037 197.366 300.571 195.117 275.404"/>
</mask>
<path d="M285.389 198.645C286.762 211.034 287.925 223.618 288.906 235.992C289.208 239.553 289.389 243.324 288.619 246.885C287.547 250.85 285.192 254.216 282.943 257.583C258.005 293.149 231.799 330.002 194.724 351.504C197.26 326.037 197.366 300.571 195.117 275.404" fill="url(#paint0_linear_6_2)"/>
<path d="M288.906 235.992L288.208 236.047L288.208 236.051L288.906 235.992ZM288.619 246.885L289.295 247.067L289.3 247.05L289.303 247.033L288.619 246.885ZM282.943 257.583L283.516 257.985L283.521 257.978L283.525 257.972L282.943 257.583ZM194.724 351.504L194.028 351.434L193.892 352.795L195.075 352.109L194.724 351.504ZM284.693 198.722C286.066 211.103 287.227 223.679 288.208 236.047L289.604 235.937C288.622 223.556 287.459 210.965 286.084 198.568L284.693 198.722ZM288.208 236.051C288.51 239.607 288.681 243.286 287.935 246.737L289.303 247.033C290.097 243.361 289.906 239.499 289.603 235.933L288.208 236.051ZM287.943 246.702C286.908 250.533 284.63 253.798 282.361 257.194L283.525 257.972C285.755 254.635 288.187 251.166 289.295 247.067L287.943 246.702ZM282.37 257.181C257.415 292.771 231.292 329.487 194.373 350.898L195.075 352.109C232.306 330.517 258.595 293.527 283.516 257.985L282.37 257.181ZM195.421 351.573C197.961 326.063 198.067 300.552 195.814 275.341L194.419 275.466C196.665 300.589 196.559 326.012 194.028 351.434L195.421 351.573Z" fill="black" mask="url(#path-1-inside-1_6_2)"/>
<mask id="path-3-outside-2_6_2" maskUnits="userSpaceOnUse" x="63.2326" y="114.887" width="153" height="99" fill="black">
<rect fill="white" x="63.2326" y="114.887" width="153" height="99"/>
<path d="M215.17 119.926C203.053 118.521 190.742 117.327 178.64 116.224C175.154 115.922 171.474 115.529 167.973 116.526C164.099 117.523 160.808 119.926 157.502 122.328C122.617 147.743 86.4599 174.456 65.2326 212.276C90.1399 209.783 115.047 209.677 139.655 212.079"/>
</mask>
<path d="M215.17 119.926C203.053 118.521 190.742 117.327 178.64 116.224C175.154 115.922 171.474 115.529 167.973 116.526C164.099 117.523 160.808 119.926 157.502 122.328C122.617 147.743 86.4599 174.456 65.2326 212.276C90.1399 209.783 115.047 209.677 139.655 212.079" fill="url(#paint1_linear_6_2)"/>
<path d="M178.64 116.224L178.703 115.527L178.7 115.527L178.64 116.224ZM167.973 116.526L168.148 117.204L168.157 117.202L168.165 117.199L167.973 116.526ZM157.502 122.328L157.09 121.762L157.09 121.763L157.502 122.328ZM65.2326 212.276L64.6222 211.933L63.9637 213.106L65.3023 212.972L65.2326 212.276ZM215.251 119.231C203.125 117.824 190.807 116.63 178.703 115.527L178.576 116.921C190.676 118.024 202.981 119.217 215.09 120.621L215.251 119.231ZM178.7 115.527C175.252 115.228 171.431 114.813 167.782 115.853L168.165 117.199C171.517 116.245 175.056 116.616 178.579 116.921L178.7 115.527ZM167.799 115.848C163.773 116.885 160.374 119.376 157.09 121.762L157.913 122.895C161.242 120.476 164.425 118.162 168.148 117.204L167.799 115.848ZM157.09 121.763C122.226 147.161 85.9365 173.959 64.6222 211.933L65.843 212.618C86.9834 174.954 123.008 148.324 157.914 122.894L157.09 121.763ZM65.3023 212.972C90.1656 210.484 115.027 210.378 139.587 212.776L139.723 211.383C115.068 208.976 90.1143 209.082 65.1629 211.579L65.3023 212.972Z" fill="black" mask="url(#path-3-outside-2_6_2)"/>
<mask id="path-5-inside-3_6_2" fill="white">
<path d="M107.308 260C90.7302 264.27 74.0624 268.435 57.3797 272.6C60.7761 277.454 65.6238 281.229 70.9503 283.506C54.5668 288.076 39.6346 298.788 32.378 314.758C32.5725 314.264 32.767 313.664 32.8568 312.975C32.6623 313.47 32.4678 314.069 32.378 314.758C32.8568 314.458 34.6073 313.47 34.3231 312.676C33.8443 311.387 32.4827 314.264 32.378 314.758C36.2532 312.676 40.8166 310.788 45.1706 310.488C47.5945 310.488 50.6916 310.878 53.31 311.777C51.5594 324.271 41.1009 336.871 28.2036 337.965C33.5301 339.852 39.2606 340.541 44.9761 339.942C41.9687 346.294 35.3854 348.871 29.9541 352.347C25.6899 355.029 21.0367 358.999 21.0367 364.542C23.9394 361.066 28.7871 359.883 33.0513 360.767C26.3632 373.861 18.2238 386.265 8.72291 397.472C5.91003 400.738 3.00738 403.914 0 407C1.94507 405.112 3.97992 403.434 5.82026 401.547C3.78541 403.33 1.84034 405.112 0 407C11.2365 396.483 26.2735 392.018 39.1558 384.183C43.1357 381.801 46.8164 379.029 50.1081 375.853C49.4348 380.123 48.2677 384.288 46.6219 388.153C57.8585 381.906 67.7484 372.377 73.2844 360.467C73.6734 367.808 73.2844 375.044 72.1173 382.295C84.8202 373.771 90.5357 357.695 104.106 350.354C103.807 357.006 102.071 363.643 99.0641 369.696C115.448 362.055 131.248 349.56 134.644 330.803C135.901 336.556 137.068 342.309 138.325 348.167C142.2 342.714 141.616 335.178 143.367 329.02C145.506 321.08 148.02 313.245 152 306.009"/>
</mask>
<path d="M107.308 260C90.7302 264.27 74.0624 268.435 57.3797 272.6C60.7761 277.454 65.6238 281.229 70.9503 283.506C54.5668 288.076 39.6346 298.788 32.378 314.758C32.5725 314.264 32.767 313.664 32.8568 312.975C32.6623 313.47 32.4678 314.069 32.378 314.758C32.8568 314.458 34.6073 313.47 34.3231 312.676C33.8443 311.387 32.4827 314.264 32.378 314.758C36.2532 312.676 40.8166 310.788 45.1706 310.488C47.5945 310.488 50.6916 310.878 53.31 311.777C51.5594 324.271 41.1009 336.871 28.2036 337.965C33.5301 339.852 39.2606 340.541 44.9761 339.942C41.9687 346.294 35.3854 348.871 29.9541 352.347C25.6899 355.029 21.0367 358.999 21.0367 364.542C23.9394 361.066 28.7871 359.883 33.0513 360.767C26.3632 373.861 18.2238 386.265 8.72291 397.472C5.91003 400.738 3.00738 403.914 0 407C1.94507 405.112 3.97992 403.434 5.82026 401.547C3.78541 403.33 1.84034 405.112 0 407C11.2365 396.483 26.2735 392.018 39.1558 384.183C43.1357 381.801 46.8164 379.029 50.1081 375.853C49.4348 380.123 48.2677 384.288 46.6219 388.153C57.8585 381.906 67.7484 372.377 73.2844 360.467C73.6734 367.808 73.2844 375.044 72.1173 382.295C84.8202 373.771 90.5357 357.695 104.106 350.354C103.807 357.006 102.071 363.643 99.0641 369.696C115.448 362.055 131.248 349.56 134.644 330.803C135.901 336.556 137.068 342.309 138.325 348.167C142.2 342.714 141.616 335.178 143.367 329.02C145.506 321.08 148.02 313.245 152 306.009" fill="url(#paint2_linear_6_2)" fill-opacity="0.92"/>
<path d="M57.3797 272.6L57.2101 271.92L56.2226 272.167L56.8061 273.001L57.3797 272.6ZM70.9503 283.506L71.1383 284.18L73.0567 283.645L71.2255 282.863L70.9503 283.506ZM32.378 314.758L31.6839 314.668L31.5076 316.02L32.7093 315.375L32.378 314.758ZM32.8568 312.975L33.5509 313.066L32.2054 312.719L32.8568 312.975ZM34.3231 312.676L34.9821 312.44L34.9792 312.432L34.3231 312.676ZM45.1706 310.488V309.788H45.1465L45.1225 309.79L45.1706 310.488ZM53.31 311.777L54.0032 311.874L54.0833 311.302L53.5373 311.115L53.31 311.777ZM28.2036 337.965L28.1444 337.267L27.9697 338.624L28.2036 337.965ZM44.9761 339.942L45.6088 340.242L46.1417 339.116L44.9031 339.246L44.9761 339.942ZM29.9541 352.347L30.3268 352.94L30.3314 352.937L29.9541 352.347ZM21.0367 364.542H20.3367V366.472L21.574 364.991L21.0367 364.542ZM33.0513 360.767L33.6747 361.085L34.0922 360.268L33.1934 360.081L33.0513 360.767ZM8.72291 397.472L9.25332 397.929L9.25684 397.924L8.72291 397.472ZM0 407L-0.501337 406.511L0.478344 407.511L0 407ZM5.82026 401.547L6.32148 402.035L5.35896 401.02L5.82026 401.547ZM39.1558 384.183L38.7963 383.582L38.7921 383.585L39.1558 384.183ZM50.1081 375.853L50.7995 375.962L51.1248 373.899L49.622 375.349L50.1081 375.853ZM46.6219 388.153L45.9779 387.879L45.1783 389.757L46.9621 388.765L46.6219 388.153ZM73.2844 360.467L73.9834 360.43L72.6496 360.172L73.2844 360.467ZM72.1173 382.295L71.4262 382.184L71.1704 383.774L72.5074 382.876L72.1173 382.295ZM104.106 350.354L104.806 350.386L104.861 349.15L103.773 349.739L104.106 350.354ZM99.0641 369.696L98.4372 369.384L97.5471 371.176L99.3599 370.33L99.0641 369.696ZM134.644 330.803L135.328 330.654L133.955 330.679L134.644 330.803ZM138.325 348.167L137.64 348.314L137.974 349.869L138.895 348.573L138.325 348.167ZM143.367 329.02L144.04 329.212L144.043 329.203L143.367 329.02ZM107.134 259.322C90.5585 263.591 73.8931 267.755 57.2101 271.92L57.5492 273.279C74.2317 269.114 90.9019 264.948 107.483 260.678L107.134 259.322ZM56.8061 273.001C60.2824 277.969 65.2368 281.825 70.6751 284.15L71.2255 282.863C66.0108 280.633 61.2697 276.938 57.9532 272.198L56.8061 273.001ZM70.7622 282.832C54.2242 287.444 39.1004 298.271 31.7407 314.468L33.0153 315.048C40.1689 299.304 54.9094 288.707 71.1383 284.18L70.7622 282.832ZM33.0294 315.014C33.2361 314.489 33.4512 313.831 33.5509 313.066L32.1626 312.885C32.0828 313.497 31.9089 314.038 31.7266 314.502L33.0294 315.014ZM32.2054 312.719C31.9987 313.244 31.7836 313.902 31.6839 314.668L33.0721 314.848C33.1519 314.236 33.3259 313.695 33.5082 313.231L32.2054 312.719ZM32.7493 315.351C32.9597 315.22 33.5753 314.863 34.0841 314.44C34.3379 314.23 34.6098 313.967 34.7988 313.667C34.9864 313.369 35.156 312.925 34.9821 312.44L33.664 312.911C33.6323 312.823 33.6896 312.801 33.614 312.921C33.5398 313.039 33.3974 313.191 33.1893 313.364C32.7741 313.709 32.2751 313.997 32.0066 314.165L32.7493 315.351ZM34.9792 312.432C34.8941 312.203 34.7378 311.916 34.4316 311.755C34.0882 311.575 33.7495 311.649 33.5242 311.759C33.3128 311.863 33.1398 312.022 33.0093 312.164C32.872 312.314 32.7436 312.486 32.6279 312.66C32.3963 313.007 32.1848 313.405 32.0252 313.745C31.8757 314.063 31.738 314.402 31.6932 314.613L33.0628 314.903C33.0617 314.908 33.0644 314.895 33.0764 314.859C33.0875 314.825 33.1033 314.782 33.1241 314.728C33.1657 314.622 33.2229 314.488 33.2924 314.34C33.4325 314.042 33.6109 313.709 33.7927 313.437C33.8836 313.3 33.9677 313.191 34.0404 313.111C34.1199 313.025 34.1544 313.009 34.1396 313.017C34.1109 313.031 33.9579 313.087 33.7811 312.995C33.6414 312.921 33.6323 312.826 33.6669 312.919L34.9792 312.432ZM32.7093 315.375C36.5544 313.308 41.013 311.476 45.2187 311.187L45.1225 309.79C40.6202 310.1 35.9519 312.043 32.0466 314.141L32.7093 315.375ZM45.1706 311.188C47.5341 311.188 50.552 311.57 53.0827 312.439L53.5373 311.115C50.8312 310.186 47.6548 309.788 45.1706 309.788V311.188ZM52.6167 311.679C51.7624 317.777 48.7771 323.922 44.4209 328.673C40.0653 333.423 34.3799 336.738 28.1444 337.267L28.2627 338.662C34.9245 338.097 40.9171 334.566 45.4528 329.619C49.9878 324.673 53.107 318.271 54.0032 311.874L52.6167 311.679ZM27.9697 338.624C33.3946 340.547 39.2299 341.248 45.0491 340.638L44.9031 339.246C39.2912 339.834 33.6655 339.158 28.4374 337.305L27.9697 338.624ZM44.3434 339.643C42.9123 342.665 40.6226 344.812 37.9752 346.648C36.6497 347.567 35.2447 348.401 33.8181 349.23C32.3987 350.055 30.9509 350.878 29.5768 351.757L30.3314 352.937C31.673 352.078 33.0848 351.275 34.5214 350.441C35.9506 349.611 37.3977 348.752 38.7729 347.798C41.5268 345.889 44.0325 343.571 45.6088 340.242L44.3434 339.643ZM29.5815 351.754C25.3178 354.436 20.3367 358.589 20.3367 364.542H21.7367C21.7367 359.409 26.0621 355.622 30.3268 352.939L29.5815 351.754ZM21.574 364.991C24.2782 361.753 28.8431 360.609 32.9092 361.452L33.1934 360.081C28.731 359.156 23.6005 360.38 20.4994 364.093L21.574 364.991ZM32.4279 360.448C25.7628 373.497 17.6529 385.856 8.18898 397.019L9.25684 397.924C18.7948 386.674 26.9636 374.224 33.6747 361.085L32.4279 360.448ZM8.19251 397.015C5.3886 400.27 2.49562 403.436 -0.501337 406.511L0.501337 407.489C3.51914 404.392 6.43147 401.205 9.25331 397.929L8.19251 397.015ZM0.487509 407.502C1.44943 406.569 2.43309 405.688 3.41992 404.792C4.40249 403.9 5.38513 402.996 6.32148 402.035L5.31904 401.058C4.41505 401.985 3.4601 402.864 2.47889 403.755C1.50195 404.642 0.495647 405.544 -0.487509 406.498L0.487509 407.502ZM5.35896 401.02C3.31707 402.809 1.35695 404.605 -0.501221 406.511L0.501221 407.489C2.32373 405.619 4.25376 403.85 6.28155 402.073L5.35896 401.02ZM0.478344 407.511C6.02167 402.323 12.5172 398.613 19.2755 395.211C26.0059 391.823 33.0468 388.718 39.5196 384.781L38.7921 383.585C32.3825 387.483 25.4638 390.528 18.646 393.961C11.856 397.379 5.21487 401.16 -0.478344 406.489L0.478344 407.511ZM39.5153 384.784C43.5373 382.376 47.2612 379.573 50.5941 376.357L49.622 375.349C46.3717 378.486 42.7341 381.225 38.7963 383.582L39.5153 384.784ZM49.4166 375.744C48.7517 379.961 47.5997 384.07 45.9779 387.879L47.266 388.427C48.9358 384.506 50.1179 380.285 50.7995 375.962L49.4166 375.744ZM46.9621 388.765C58.3035 382.459 68.3101 372.83 73.9192 360.762L72.6496 360.172C67.1867 371.925 57.4134 381.352 46.2818 387.541L46.9621 388.765ZM72.5854 360.504C72.9717 367.795 72.5854 374.982 71.4262 382.184L72.8084 382.406C73.9834 375.107 74.3751 367.821 73.9834 360.43L72.5854 360.504ZM72.5074 382.876C78.9705 378.539 83.6466 372.286 88.337 366.313C93.0557 360.304 97.7976 354.563 104.439 350.97L103.773 349.739C96.8444 353.487 91.9433 359.454 87.2359 365.449C82.5001 371.48 77.967 377.527 71.7273 381.714L72.5074 382.876ZM103.407 350.323C103.112 356.875 101.402 363.417 98.4372 369.384L99.691 370.007C102.741 363.869 104.502 357.137 104.806 350.386L103.407 350.323ZM99.3599 370.33C115.812 362.657 131.875 350.025 135.333 330.928L133.955 330.679C130.62 349.096 115.083 361.453 98.7682 369.061L99.3599 370.33ZM133.96 330.953C135.218 336.709 136.38 342.441 137.64 348.314L139.009 348.02C137.756 342.178 136.584 336.403 135.328 330.654L133.96 330.953ZM138.895 348.573C140.928 345.711 141.771 342.333 142.333 338.973C142.904 335.558 143.179 332.242 144.04 329.212L142.694 328.829C141.805 331.956 141.496 335.487 140.952 338.742C140.399 342.053 139.596 345.169 137.754 347.762L138.895 348.573ZM144.043 329.203C146.178 321.279 148.674 313.508 152.613 306.346L151.387 305.671C147.366 312.982 144.835 320.882 142.691 328.838L144.043 329.203Z" fill="black" mask="url(#path-5-inside-3_6_2)"/>
<path d="M326.163 24.3669C238.442 70.5206 126.571 227.854 126.571 227.854L326.163 24.3669Z" fill="#BFC4C3"/>
<path d="M326.163 24.3669C238.442 70.5206 126.571 227.854 126.571 227.854" stroke="black" stroke-width="0.7" stroke-miterlimit="10"/>
<path d="M382.633 82.7842C337.573 172.213 184.014 286.271 184.014 286.271L382.633 82.7842Z" fill="#BFC4C3"/>
<path d="M382.633 82.7842C337.573 172.213 184.014 286.271 184.014 286.271" stroke="black" stroke-width="0.7" stroke-miterlimit="10" stroke-linecap="round"/>
<path d="M401.82 5.2253C419.749 23.5392 374.198 98 374.198 98C347.26 82.5228 326.154 60.9754 311 33.4457C311 33.4457 383.876 -12.9857 401.805 5.24L401.82 5.2253Z" fill="url(#paint3_linear_6_2)" stroke="black" stroke-width="0.7" stroke-miterlimit="10"/>
<path d="M311.937 37.024L126.571 226.837L184.61 286.271L369.976 96.4584L311.937 37.024Z" fill="#BFC4C3"/>
<path d="M341.602 66.4412C341.602 66.4412 315.749 39.826 314.695 30.217C312.96 30.1124 312.204 31.009 311.239 31.9953C305.662 37.7338 337.567 70.5807 337.567 70.5807C337.567 70.5807 369.472 103.428 375.05 97.6891C376.014 96.7028 376.874 95.8062 376.785 94.1325C367.559 93.0416 341.617 66.4263 341.617 66.4263L341.602 66.4412Z" fill="#7A7A7A"/>
<path d="M126.333 226.895L89.5731 239.158C110.986 273.972 138.752 302.399 172.961 324.242L184.988 286.731C161.825 270.477 142.268 250.516 126.333 226.88V226.895Z" fill="#7A7A7A" stroke="black" stroke-width="0.7" stroke-miterlimit="10"/>
<path d="M155.356 256.938C155.356 256.938 130.516 231.722 129.253 223.013C127.794 222.819 126.922 223.7 126.14 224.492C121.178 229.541 151.852 260.598 151.852 260.598C151.852 260.598 182.436 291.656 187.413 286.711C188.285 285.815 188.977 285.128 188.872 283.544C180.301 282.259 155.461 257.028 155.461 257.028H155.371V256.924L155.356 256.938Z" fill="#7A7A7A" stroke="black" stroke-width="0.7" stroke-miterlimit="10"/>
<path d="M341.602 66.4412C341.602 66.4412 315.749 39.826 314.695 30.217C312.96 30.1124 312.204 31.009 311.239 31.9953C305.662 37.7338 337.567 70.5807 337.567 70.5807C337.567 70.5807 369.472 103.428 375.05 97.6891C376.014 96.7028 376.874 95.8062 376.785 94.1325C367.559 93.0416 341.617 66.4263 341.617 66.4263L341.602 66.4412ZM341.602 66.4412H341.706" stroke="black" stroke-width="0.7" stroke-miterlimit="10"/>
<mask id="mask0_6_2" style="mask-type:luminance" maskUnits="userSpaceOnUse" x="146" y="65" width="201" height="201">
<path d="M299.37 65.4647L146.596 218.216L193.82 265.433L346.594 112.682L299.37 65.4647Z" fill="white"/>
</mask>
<g mask="url(#mask0_6_2)">
<path d="M230.001 174.725L245.235 189.957L250.813 184.38L235.414 168.982C233.959 167.528 233.974 165.144 235.444 163.675L243.391 155.729L237.888 150.227L230.106 158.008C225.457 162.656 225.412 170.122 230.001 174.71V174.725Z" fill="#005AAA"/>
<path d="M257.89 130.258L262.809 146.299L246.18 141.966L239.747 148.398L265.493 155.115L265.957 156.764C266.227 157.648 265.987 158.593 265.328 159.253L261.384 163.195L266.887 168.698L270.831 164.755C273.56 162.026 274.564 158.053 273.455 154.41L264.233 123.946L257.905 130.273L257.89 130.258Z" fill="#005AAA"/>
<path d="M283.621 132.012L280.577 122.102C280.022 120.513 280.442 118.729 281.642 117.529L283.306 115.865C283.696 115.475 284.311 115.475 284.7 115.865L292.243 123.421L283.636 132.027L283.621 132.012ZM279.857 108.279L276.124 111.997C272.795 115.325 271.625 120.333 273.125 124.605L281.941 153.286L288.224 147.004L286.2 140.407L297.731 128.878L302.034 133.181L307.597 127.604L288.194 108.204C285.9 105.91 282.166 105.94 279.842 108.249L279.857 108.279Z" fill="#005AAA"/>
<path d="M306.622 81.5328L294.012 94.1413C291.688 96.465 291.673 100.198 293.952 102.492L313.295 121.832L318.858 116.27L301.539 98.9687C301.164 98.5939 301.164 97.9793 301.539 97.5895L310.026 89.1039C310.416 88.7141 311.031 88.7141 311.406 89.1039L328.709 106.405L334.272 100.843L314.929 81.5028C312.635 79.209 308.901 79.239 306.577 81.5478L306.622 81.5328Z" fill="#005AAA"/>
<path d="M185.842 212.565C179.185 219.401 164.31 235.908 170.098 241.71C176.321 247.932 195.019 230.211 200.597 224.634C206.175 219.057 223.898 200.361 217.675 194.139C214.721 191.186 209.713 193.6 206.205 195.669C202.666 197.768 198.437 200.931 193.969 204.859C195.484 206.193 197.028 207.602 198.572 209.072C205.26 203.255 209.938 200.481 212.367 199.477C210.898 203 205.845 210.631 196.218 220.256C186.547 229.926 178.915 234.963 175.406 236.418C176.77 233.089 181.344 226.088 190.295 216.913C190.88 216.313 191.195 215.518 191.195 214.694C191.195 213.869 190.865 213.09 190.265 212.505C189.051 211.321 187.087 211.351 185.857 212.58L185.842 212.565Z" fill="url(#paint4_linear_6_2)"/>
<path d="M187.102 224.724C192.62 230.241 211.093 247.722 217.39 241.425C220.389 238.426 218.035 233.464 216.011 229.986C214.002 226.523 210.793 222.235 206.969 217.857C205.425 219.611 203.955 221.185 202.696 222.505C208.424 229.131 211.138 233.764 212.127 236.178C208.619 234.738 201.061 229.791 191.54 220.286C182.018 210.766 177.07 203.195 175.646 199.687C179.035 201.081 186.277 205.773 195.379 214.709C196.593 215.893 198.557 215.878 199.787 214.649C201.001 213.419 200.986 211.44 199.787 210.241C194.089 204.634 188.271 199.851 183.413 196.763C177.01 192.7 172.872 191.951 170.398 194.424C164.1 200.721 181.584 219.191 187.102 224.709V224.724Z" fill="url(#paint5_linear_6_2)"/>
</g>
<path d="M383.33 7.06499C372.188 10.1905 361.33 14.4806 350.966 19.7586C349.904 20.2451 350.861 21.911 351.938 21.3213C362.212 16.0434 372.861 11.8564 383.913 8.73093C385.08 8.43607 384.586 6.57848 383.435 6.87334L383.33 7.06499Z" fill="white"/>
<path d="M117.805 165.542C120.406 165.542 120.406 161.647 117.805 161.647C115.205 161.647 115.221 165.542 117.805 165.542Z" fill="white"/>
<path d="M166.028 125.805C155.607 133.814 145.367 142.033 134.946 150.043L126.074 156.961C125.683 157.26 125.397 157.753 125.773 158.246C125.969 158.635 126.645 158.934 127.036 158.545C137.457 150.536 147.698 142.317 158.119 134.308L166.991 127.389C167.382 127.09 167.667 126.597 167.276 126.104C167.081 125.715 166.404 125.417 166.013 125.805H166.028Z" fill="white"/>
<path d="M243.89 302.823C245.84 302.823 245.84 298.928 243.89 298.928C241.939 298.928 241.952 302.823 243.89 302.823Z" fill="white"/>
<path d="M282.77 249.627C274.378 260.497 266.076 271.471 257.594 282.356C255.258 285.416 252.908 288.492 250.467 291.449C249.684 292.434 250.949 293.718 251.733 292.733C260.125 281.863 268.427 270.889 276.924 260.004L284.051 250.911C284.834 249.926 283.569 248.642 282.785 249.627H282.77Z" fill="white"/>
<path d="M294.517 49.0941C279.885 62.1666 265.147 75.239 251.197 89.2073C247.756 92.6234 244.329 96.1459 240.781 99.6683C239.901 100.579 241.175 101.885 242.054 100.974C248.347 94.5365 254.533 88.2052 261.008 81.9802C267.982 75.1479 275.245 68.6041 282.614 61.9692C286.936 58.1431 291.348 54.2259 295.684 50.3087C296.564 49.504 295.29 48.092 294.411 49.003L294.517 49.1093V49.0941Z" fill="white"/>
<path d="M123.485 231.784L102.893 239.405C101.734 239.827 102.224 241.772 103.368 241.448C110.203 238.87 117.126 236.406 123.961 233.827C125.12 233.406 124.629 231.46 123.485 231.784Z" fill="white"/>
<path d="M94.3964 268.805C85.5589 271.16 76.7363 273.401 67.8089 275.739C66.7454 275.949 67.1349 277.868 68.1984 277.449L94.7858 270.515C95.8493 270.305 95.4599 268.386 94.3964 268.805Z" fill="white"/>
<defs>
<linearGradient id="paint0_linear_6_2" x1="241.943" y1="198.645" x2="241.943" y2="351.534" gradientUnits="userSpaceOnUse">
<stop stop-color="#41BBEE"/>
<stop offset="1" stop-color="#2058AF"/>
</linearGradient>
<linearGradient id="paint1_linear_6_2" x1="140.209" y1="115.877" x2="140.209" y2="212.261" gradientUnits="userSpaceOnUse">
<stop stop-color="#41BBEE"/>
<stop offset="1" stop-color="#2058AF"/>
</linearGradient>
<linearGradient id="paint2_linear_6_2" x1="141.282" y1="271.195" x2="-15.2988" y2="421.398" gradientUnits="userSpaceOnUse">
<stop stop-color="#E7164A"/>
<stop offset="1" stop-color="#7739A2"/>
</linearGradient>
<linearGradient id="paint3_linear_6_2" x1="358.51" y1="0.992231" x2="358.51" y2="98" gradientUnits="userSpaceOnUse">
<stop stop-color="#41BBEE"/>
<stop offset="1" stop-color="#2058AF"/>
</linearGradient>
<linearGradient id="paint4_linear_6_2" x1="170.098" y1="241.71" x2="217.683" y2="194.132" gradientUnits="userSpaceOnUse">
<stop stop-color="#45C3F3"/>
<stop offset="0.5" stop-color="#1671C2"/>
<stop offset="0.96" stop-color="#2056AE"/>
<stop offset="1" stop-color="#2056AE"/>
</linearGradient>
<linearGradient id="paint5_linear_6_2" x1="217.39" y1="241.425" x2="170.39" y2="194.432" gradientUnits="userSpaceOnUse">
<stop stop-color="#2056AE"/>
<stop offset="0.25" stop-color="#2056AE"/>
<stop offset="0.28" stop-color="#2056AE"/>
<stop offset="0.62" stop-color="#A32B9B"/>
<stop offset="1" stop-color="#ED1443"/>
</linearGradient>
</defs>
</svg>
